<?xml version="1.0" encoding="UTF-8"?>
<svg id="Layer_1" data-name="Layer 1" xmlns="http://www.w3.org/2000/svg" width="185.5" height="40.7" version="1.1" viewBox="0 0 185.5 40.7">
  <defs>
    <style>
      .cls-1 {
        fill-rule: evenodd;
      }

      .cls-1, .cls-2 {
        fill: #1d1d1b;
        stroke-width: 0px;
      }
    </style>
  </defs>
  <g id="Ebene_2" data-name="Ebene 2">
    <g id="Ebene_1-2" data-name="Ebene 1-2">
      <path class="cls-2" d="M13.2,1.1c-1.4.6-2.2,1.4-2.2,2.3,0,1.7,2.8,3.1,6.4,3.1s6.4-1.4,6.4-3.1-.7-1.6-1.8-2.2c8.9,2.5,14,11.8,11.4,20.6-1.6,5.7-6.2,10.1-11.9,11.6-.3,0-.5.1-.8.1-.2,0-.5,0-.7,0-2.3-.6-3.8-4.8-3.8-9.5v-2.5h0c0-3.9.9-7.7,2.5-11.2h-1.4c-2.8,0-5.6-.6-8.2-1.9-2.1,3.8-3.2,8-3.2,12.3-.2,3.9.9,7.8,3,11.1C.9,27-1.8,16.8,2.8,8.8c2.3-3.9,6-6.7,10.3-7.8Z"/>
      <path class="cls-2" d="M44.5,5.6c0-2.3,1.8-4.1,4.1-4.1s4.1,1.8,4.1,4.1-1.8,4.1-4.1,4.1-4.1-1.8-4.1-4.1h0Z"/>
      <polygon class="cls-2" points="44.9 11.2 52.3 11.2 52.3 31.6 44.9 31.6 44.9 11.2 44.9 11.2"/>
      <polygon class="cls-2" points="77.4 .4 84.7 .4 84.7 31.6 77.4 31.6 77.4 .4 77.4 .4"/>
      <path class="cls-2" d="M69.3,11.2c3.4,0,6.2,2.8,6.2,6.2v14.2h-7.3v-11.7c0-1.9-1.5-3.3-3.4-3.3-1.9,0-3.4,1.5-3.4,3.4v11.7h-7.3V11.2h15.1Z"/>
      <path class="cls-1" d="M178.3,6.7c0-1.8,1.5-3.2,3.2-3.2s3.2,1.5,3.2,3.2-1.5,3.2-3.2,3.2c-1.8,0-3.2-1.5-3.2-3.2ZM179,6.7c0-1.4,1.1-2.5,2.5-2.5s2.5,1.1,2.5,2.5-1.1,2.5-2.5,2.5-2.5-1.1-2.5-2.5h0Z"/>
      <path class="cls-1" d="M180.2,8.4h.7v-1.4h.7c.5,0,.6.2.6.6,0,.2,0,.5,0,.7h.8c-.2,0-.2-.2-.2-.7s-.2-.7-.4-.9c.3-.1.6-.5.5-.8,0-.5-.4-1-1-1,0,0,0,0-.1,0h-1.7s0,3.4,0,3.4ZM180.9,6.5v-.9h.9c.4,0,.5.3.5.4s-.2.5-.6.5h-.9Z"/>
      <path class="cls-2" d="M111,11.2c3.4,0,6.2,2.8,6.2,6.2v14.2h-7.3v-11.7c0-1.9-1.5-3.3-3.4-3.3-1.9,0-3.4,1.5-3.4,3.3,0,0,0,0,0,0v11.7h-7.3V11.2h15.1Z"/>
      <path class="cls-2" d="M148.3,31.6c-3.4,0-6.2-2.8-6.2-6.2v-14.2h7.3v11.7c0,1.9,1.5,3.3,3.4,3.3,1.9,0,3.4-1.5,3.4-3.4v-11.7h7.3v20.4h-15.1Z"/>
      <path class="cls-2" d="M126.8,11.2c-2.7,0-8.1,1.4-8.1,10s6.3,10.3,8.1,10.3h6.3c.1,1.5-.8,3-2.3,3.5-.3,0-.6.1-.9.1-.4,0-.7,0-1.1,0-1.1-.1-2-1.1-2.1-2.2v-.3h-7.4v.5c0,1.9.6,3.6,2,4.9,1.5,1.4,4.4,2.2,8.2,2.2h.4c2.9.1,5.7-.7,8-2.4,1.4-1.2,2.2-2.9,2.2-4.7V11.2h-13.4ZM132.2,25.5c-.6.7-1.5,1-2.4,1h0c-.9,0-1.8-.4-2.4-1-.9-1.1-1.4-2.5-1.3-4,0-1.5.4-2.9,1.3-4,.6-.7,1.5-1,2.4-1h.1c.9,0,1.8.4,2.4,1,.9,1.2,1.3,2.6,1.1,4,.1,1.4-.3,2.9-1.2,4Z"/>
      <path class="cls-2" d="M86.2,5.6c0-2.3,1.8-4.1,4.1-4.1s4.1,1.8,4.1,4.1-1.8,4.1-4.1,4.1h0c-2.3,0-4.1-1.8-4.1-4.1h0Z"/>
      <polygon class="cls-2" points="86.6 11.2 93.9 11.2 93.9 31.6 86.6 31.6 86.6 11.2 86.6 11.2"/>
      <path class="cls-1" d="M182.2,12.8c-2.1-1.5-4.6-2.2-7.2-2-2.5-.2-5.1.5-7.2,2-1.6,1.3-2.4,3.4-2.2,5.4h6.5c0-.7.1-1.4.5-1.9.4-.4,1-.7,1.6-.7h.5c.6,0,1.2.2,1.7.6.4.7.6,1.5.5,2.2v.6h-4c-4.3,0-8.6,1.8-8.6,6.5,0,3.4,2.8,6.1,6.2,6.1.1,0,.3,0,.4,0h13.4v-13.4c.2-2-.6-4.1-2.1-5.4ZM177,23.4c0,1.9-.9,3.3-2.8,3.4-1.2,0-2.3-.8-2.5-2,.2-1.2,1.2-2.1,2.5-2h2.8v.7Z"/>
    </g>
  </g>
</svg>